# xmcd
#
# Track frame offsets:
#	150
#	21287
#	43002
#	61985
#	83470
#	103477
#	123997
#	145205
#	166305
#	187000
#
# Disc length: 2751 seconds
#
# Revision: 1
# Processed by: cddbd v1.4PL0 Copyright (c) Steve Scherf et al.
# Submitted via: EasyCDDAExtractor 5.0.6
#
DISCID=870abd0a
DTITLE=Eddy Herrera - Lluvia De Amor
DYEAR=1900
DGENRE=
TTITLE0=La Bailadora
TTITLE1=Vete
TTITLE2=No Es Solo Sexo
TTITLE3=No Lo Puedo Dejar
TTITLE4=Ay Ven
TTITLE5=Dueño De Nada
TTITLE6=Cada Mañana
TTITLE7=Amor Lunatico
TTITLE8=Lluvia De Amor
TTITLE9=Voy De Fiesta
EXTD=
EXTT0=
EXTT1=
EXTT2=
EXTT3=
EXTT4=
EXTT5=
EXTT6=
EXTT7=
EXTT8=
EXTT9=
PLAYORDER=
